<svg viewBox="0 0 24.9863 21.6084" xmlns="http://www.w3.org/2000/svg" xmlns:xlink="http://www.w3.org/1999/xlink" width="24.986328" height="21.608398" fill="none" customFrame="#000000">
	<defs>
		<clipPath id="clipPath_108">
			<rect width="14.575342" height="12.604972" x="5.205566" y="4.502441" fill="rgb(255,255,255)" />
		</clipPath>
		<clipPath id="clipPath_109">
			<rect width="14.575342" height="12.604972" x="5.205566" y="4.502441" fill="rgb(255,255,255)" />
		</clipPath>
		<clipPath id="clipPath_110">
			<rect width="14.575342" height="12.604972" x="5.205566" y="4.502441" fill="rgb(255,255,255)" />
		</clipPath>
	</defs>
	<g id="Instagram">
		<ellipse id="Ellipse 9" rx="12.493151" ry="10.804261" cx="12.4931507" cy="10.8047495" fill="rgb(255,180,0)" />
		<g id="Icons-instagram" customFrame="url(#clipPath_108)">
			<rect id="Icons-instagram" width="14.575342" height="12.604972" x="5.205566" y="4.502441" fill="rgb(255,255,255)" fill-opacity="0" />
			<g id="Icons-instagram" customFrame="url(#clipPath_109)">
				<rect id="Icons-instagram" width="14.575342" height="12.604972" x="5.205566" y="4.502441" fill="rgb(255,255,255)" fill-opacity="0" />
				<g id="Icons-instagram" clip-path="url(#clipPath_110)" customFrame="url(#clipPath_110)">
					<rect id="Icons-instagram" width="14.575342" height="12.604972" x="5.205566" y="4.502441" fill="rgb(255,255,255)" fill-opacity="0" />
					<path id="Vector" d="M5.20557 4.50244L19.7809 4.50244L19.7809 17.1074L5.20557 17.1074L5.20557 4.50244Z" fill-rule="nonzero" />
					<path id="Vector" d="M12.4935 5.55273C14.1435 5.55273 14.3494 5.55799 14.9968 5.58425C15.6436 5.61051 16.0839 5.69822 16.4713 5.82847C16.8721 5.96187 17.2098 6.14254 17.5475 6.43403C17.8563 6.69658 18.0952 7.01417 18.2477 7.3647C18.3977 7.69926 18.4997 8.08056 18.5301 8.6399C18.5586 9.19977 18.5665 9.37782 18.5665 10.8048C18.5665 12.2318 18.5605 12.4098 18.5301 12.9697C18.4997 13.5291 18.3977 13.9098 18.2477 14.2449C18.0957 14.5956 17.8567 14.9133 17.5475 15.1756C17.2438 15.4426 16.8766 15.6492 16.4713 15.7811C16.0845 15.9109 15.6436 15.9991 14.9968 16.0254C14.3494 16.0501 14.1435 16.0569 12.4935 16.0569C10.8434 16.0569 10.6375 16.0516 9.99015 16.0254C9.34337 15.9991 8.90308 15.9109 8.51562 15.7811C8.11013 15.6496 7.74284 15.4429 7.43947 15.1756C7.1306 14.9131 6.89164 14.5955 6.73925 14.2449C6.58863 13.9104 6.48721 13.5291 6.45685 12.9697C6.42831 12.4098 6.42041 12.2318 6.42041 10.8048C6.42041 9.37782 6.42648 9.19977 6.45685 8.6399C6.48721 8.08003 6.58863 7.69978 6.73925 7.3647C6.89122 7.01396 7.13023 6.69628 7.43947 6.43403C7.74292 6.16682 8.1102 5.96015 8.51562 5.82847C8.90308 5.69822 9.34277 5.61051 9.99015 5.58425C10.6375 5.55956 10.8434 5.55273 12.4935 5.55273ZM12.4935 8.17877C11.6881 8.17877 10.9158 8.45544 10.3463 8.94792C9.77686 9.4404 9.45694 10.1083 9.45694 10.8048C9.45694 11.5013 9.77686 12.1692 10.3463 12.6617C10.9158 13.1542 11.6881 13.4308 12.4935 13.4308C13.2988 13.4308 14.0712 13.1542 14.6406 12.6617C15.2101 12.1692 15.53 11.5013 15.53 10.8048C15.53 10.1083 15.2101 9.4404 14.6406 8.94792C14.0712 8.45544 13.2988 8.17877 12.4935 8.17877ZM16.441 8.04747C16.441 7.87335 16.361 7.70637 16.2186 7.58325C16.0762 7.46013 15.8832 7.39096 15.6818 7.39096C15.4805 7.39096 15.2874 7.46013 15.145 7.58325C15.0027 7.70637 14.9227 7.87335 14.9227 8.04747C14.9227 8.22159 15.0027 8.38857 15.145 8.51169C15.2874 8.63481 15.4805 8.70398 15.6818 8.70398C15.8832 8.70398 16.0762 8.63481 16.2186 8.51169C16.361 8.38857 16.441 8.22159 16.441 8.04747ZM12.4935 9.22919C12.9767 9.22919 13.4401 9.39519 13.7818 9.69067C14.1234 9.98616 14.3154 10.3869 14.3154 10.8048C14.3154 11.2227 14.1234 11.6235 13.7818 11.9189C13.4401 12.2144 12.9767 12.3804 12.4935 12.3804C12.0103 12.3804 11.5469 12.2144 11.2052 11.9189C10.8635 11.6235 10.6716 11.2227 10.6716 10.8048C10.6716 10.3869 10.8635 9.98616 11.2052 9.69067C11.5469 9.39519 12.0103 9.22919 12.4935 9.22919Z" fill="rgb(43,43,43)" fill-rule="nonzero" />
				</g>
			</g>
		</g>
	</g>
</svg>
