<svg viewBox="0 0 14.5752 12.605" xmlns="http://www.w3.org/2000/svg" xmlns:xlink="http://www.w3.org/1999/xlink" width="14.575195" height="12.604980" fill="none">
	<rect id="Icons-facebook" width="14.575342" height="12.604972" x="0.000000" y="0.000000" fill="rgb(255,255,255)" fill-opacity="0" />
	<path id="Vector" d="M0 0L14.5753 0L14.5753 12.605L0 12.605L0 0Z" fill-rule="nonzero" />
	<path id="Vector" d="M8.50261 7.09066L10.0209 7.09066L10.6282 4.98983L8.50261 4.98983L8.50261 3.93942C8.50261 3.39846 8.50261 2.88901 9.71722 2.88901L10.6282 2.88901L10.6282 1.12431C10.4302 1.10173 9.6826 1.05078 8.8931 1.05078C7.24427 1.05078 6.07338 1.92105 6.07338 3.51925L6.07338 4.98983L4.25146 4.98983L4.25146 7.09066L6.07338 7.09066L6.07338 11.5549L8.50261 11.5549L8.50261 7.09066Z" fill="rgb(43,43,43)" fill-rule="nonzero" />
</svg>
